<?xml version="1.0" standalone="no"?>
<!DOCTYPE svg PUBLIC "-//W3C//DTD SVG 20010904//EN"
 "http://www.w3.org/TR/2001/REC-SVG-20010904/DTD/svg10.dtd">
<svg version="1.0" xmlns="http://www.w3.org/2000/svg"
 width="294.000000pt" height="294.000000pt" viewBox="0 0 294.000000 294.000000"
 preserveAspectRatio="xMidYMid meet">
<metadata>
Created by potrace 1.14, written by Peter Selinger 2001-2017
</metadata>
<g transform="translate(0.000000,294.000000) scale(0.100000,-0.100000)"
fill="#000000" stroke="none">
<path d="M1040 2823 c-14 -2 -45 -9 -70 -15 -25 -6 -117 -12 -206 -13 -88 -1
-185 -8 -215 -15 -125 -29 -258 -126 -325 -237 -56 -93 -74 -167 -79 -333 -2
-80 -4 -152 -5 -160 -1 -8 -1 -24 0 -35 0 -11 -2 -41 -6 -67 -3 -26 -3 -55 2
-65 4 -10 9 -306 10 -658 1 -453 5 -655 13 -690 45 -188 197 -340 389 -390 85
-23 1767 -22 1861 0 173 41 311 168 375 344 20 54 21 85 28 726 4 369 8 688 9
710 1 22 1 54 0 70 -1 17 -2 37 -2 45 0 8 -4 89 -8 180 -9 180 -24 241 -81
330 -64 100 -176 185 -289 221 -55 17 -98 21 -256 23 -122 2 -206 8 -235 17
-64 19 -277 17 -360 -4 -71 -17 -172 -16 -230 3 -34 11 -271 21 -320 13z"/>
</g>
</svg>
